<svg xmlns="http://www.w3.org/2000/svg" viewBox="0 0 720 500" role="img" aria-label="Illustrated Liberian meal with rice greens fish and fruit">
  <rect width="720" height="500" fill="#fff8e8"/>
  <rect x="0" y="365" width="720" height="135" fill="#246b55"/>
  <circle cx="560" cy="86" r="48" fill="#f2c14e"/>
  <path d="M70 330c88-78 190-116 306-80 78 24 132 23 208-24 35-21 69-30 101-27v166H70z" fill="#d8ded6"/>
  <ellipse cx="355" cy="292" rx="190" ry="82" fill="#ffffff"/>
  <ellipse cx="355" cy="292" rx="150" ry="58" fill="#f7f4ec"/>
  <circle cx="302" cy="284" r="44" fill="#f5f0db"/>
  <path d="M270 286c24-20 43-21 67 0-21 17-43 18-67 0z" fill="#f2c14e"/>
  <path d="M390 255c48 7 82 28 105 62-50 8-89-9-118-49z" fill="#b73822"/>
  <path d="M389 255c38 18 65 39 88 63" stroke="#fff8e8" stroke-width="8" stroke-linecap="round"/>
  <path d="M226 310c16-49 69-54 111-16-34 31-77 37-111 16z" fill="#246b55"/>
  <circle cx="461" cy="256" r="13" fill="#164333"/>
  <path d="M138 393h430" stroke="#164333" stroke-width="14" stroke-linecap="round"/>
  <path d="M127 141h69v210h-69z" fill="#164333"/>
  <path d="M145 141V94m28 47V94" stroke="#164333" stroke-width="14" stroke-linecap="round"/>
  <path d="M603 131c28 40 23 83-15 129" stroke="#164333" stroke-width="14" stroke-linecap="round" fill="none"/>
  <path d="M594 136c31-8 57 7 71 40" stroke="#164333" stroke-width="14" stroke-linecap="round" fill="none"/>
</svg>
