<svg xmlns="http://www.w3.org/2000/svg" viewBox="0 0 32 32" role="img" aria-labelledby="title">
  <title id="title">GitHub icon</title>
  <path fill="#ffffff" d="M16 3C8.83 3 3 8.83 3 16c0 5.73 3.71 10.59 8.86 12.3.65.12.89-.28.89-.63 0-.31-.01-1.13-.02-2.22-3.6.78-4.36-1.73-4.36-1.73-.59-1.49-1.44-1.89-1.44-1.89-1.17-.8.09-.78.09-.78 1.29.09 1.96 1.32 1.96 1.32 1.15 1.96 3.01 1.39 3.74 1.07.12-.83.45-1.39.82-1.71-2.87-.33-5.89-1.43-5.89-6.37 0-1.41.5-2.56 1.32-3.46-.13-.33-.57-1.66.13-3.46 0 0 1.08-.35 3.53 1.32a12.1 12.1 0 0 1 6.43 0c2.45-1.67 3.53-1.32 3.53-1.32.7 1.8.26 3.13.13 3.46.82.9 1.32 2.05 1.32 3.46 0 4.95-3.03 6.03-5.91 6.35.46.4.87 1.18.87 2.38 0 1.72-.02 3.11-.02 3.53 0 .35.23.76.9.63A13 13 0 0 0 29 16c0-7.17-5.83-13-13-13z"/>
</svg>
